<?xml version="1.0" encoding="UTF-8"?><svg id="a" xmlns="http://www.w3.org/2000/svg" viewBox="0 0 137.75 146.549"><defs><style>.b{fill:#595757;}.b,.c{stroke-width:0px;}.c{fill:#c7000b;}</style></defs><polygon class="b" points="18.555 115.717 18.555 128.162 6.224 128.162 6.224 115.717 0 115.717 0 146.263 6.224 146.263 6.224 133.536 18.555 133.536 18.555 146.263 24.777 146.263 24.777 115.717 18.555 115.717"/><path class="b" d="m40.282,123.861h-12.224v4.697h12.109c2.205,0,3.223,1.812,3.223,4.238v.176h-9.957c-4.523,0-6.961,2.881-6.961,6.731,0,4.073,1.815,6.56,6.961,6.56h15.672l.11-14.198c0-5.6-3.958-8.204-8.934-8.204Zm3.108,18.047s-6.62.056-8.429.056-2.434-1.359-2.434-2.261c0-.906.621-2.32,2.32-2.32h8.543v4.525Z"/><polygon class="b" points="51.538 115.717 51.538 146.263 57.761 146.263 57.761 135.176 57.761 115.717 51.538 115.717"/><polygon class="b" points="74.165 123.861 66.757 123.861 57.761 135.176 66.64 146.263 73.882 146.263 64.773 135.12 74.165 123.861"/><path class="b" d="m75.352,123.861h6.112s-.061,9.785-.061,13.068c0,3.621,1.471,4.527,3.683,4.527h5.311v-17.595h6.055v22.402h-12.953c-5.598,0-8.203-2.999-8.203-8.881s.057-13.521.057-13.521Z"/><path class="b" d="m111.727,141.737c-2.599,0-3.9-1.187-3.9-4.808,0-1.265.007-4.722.015-8.482h5.98v-4.585h-5.965c.012-4.388.023-8.144.023-8.144h-5.884s-.011,3.663-.023,8.144h-3.992l.056,4.585h3.921c-.01,3.716-.015,7.368-.015,9.559,0,5.882,2.603,8.258,8.199,8.258h3.507v-4.526h-1.923Z"/><path class="b" d="m125.813,123.414c7.753,0,11.937,4.917,11.937,11.477,0,7.525-4.809,11.658-11.937,11.658s-11.712-4.585-11.712-11.658c0-6.842,4.303-11.477,11.712-11.477Zm-5.824,11.477c0,2.719.788,7.298,5.824,7.298s6.058-3.788,6.058-7.298c0-3.279-1.306-6.956-6.058-6.956s-5.824,4.015-5.824,6.956Z"/><polygon class="c" points=".011 0 26.294 0 26.294 68.44 54.078 36.54 117.419 108.243 82.287 108.305 54.062 76.171 26.294 108.418 .011 108.418 .011 0"/></svg>